<svg xmlns="http://www.w3.org/2000/svg" version="1.1" xmlns:xlink="http://www.w3.org/1999/xlink" xmlns:svgjs="http://svgjs.dev/svgjs" style="overflow: hidden; height: 85vh;" viewBox="0 0 1920 1080" class="overflow-hidden rounded-md drop-shadow-lg transition duration-300"><rect width="1920" height="1080" fill="#1e1d23"/><g clip-path="url(&quot;#SvgjsClipPath1224&quot;)"><g transform="matrix(0.9062123666477296,-0.7080106966245077,0.7080106966245077,0.9062123666477296,-294.988866865589,709.9589627597768)"><path d="M0,-1080C3.8602932678640727,-987.759444201206,31.134002946072922,-714.595952831261,23.161759607184436,-526.5566652072359C15.18951626829595,-338.5173775832109,-35.87281841968671,-134.02826421065362,-47.83346003333091,48.23572574415033C-59.79410164697511,230.49971569895428,-61.49364568310887,392.8605216029131,-48.602090074680774,567.0272745215876C-35.710534466252675,741.1940274402622,23.664832242854903,920.681669120339,29.515873617237702,1093.2362432561977C35.366914991620504,1265.7908173920562,-8.576529558844356,1424.5607598794388,-13.495841828383973,1602.3547193367392C-18.41515409792359,1780.1486787940396,-2.249306971397329,2067.0591198894567,0,2160L 1920 2160 L 1920 -1080 Z" fill="url(&quot;#SvgjsLinearGradient1214&quot;)"/><path d="M192,-1080C186.98125072727058,-995.9452111008718,162.7370848279776,-747.3961119007487,161.88750436362352,-575.6712666052307C161.03792389926943,-403.9464213097127,181.264372727137,-240.1384065430759,186.9025172138754,-49.65092822689232C192.5406617006138,140.83655008929125,194.04843254019397,376.55635293115495,195.71637128405405,567.2536032918706C197.38431002791413,757.9508536525863,196.77875207750685,926.5066799727862,196.9101496770358,1094.5325739374018C197.04154727656476,1262.5584679020176,197.3231151607338,1397.8310627357982,196.50475688122785,1575.4089670795647C195.6863986017219,1752.9868714233312,192.75079281353797,2062.5681611799273,192,2160L 1920 2160 L 1920 -1080 Z" fill="url(&quot;#SvgjsLinearGradient1215&quot;)"/><path d="M384,-1080C376.3802744776202,-967.7258533398688,334.9442747338235,-629.9305464804622,338.2816468657215,-406.35512003921224C341.6190189976195,-182.77969359796222,394.62736648905883,42.146588109181806,404.02423279138816,261.4525586475001C413.4210990937175,480.75852918581836,396.28733095528304,698.6182460064124,394.6628446796975,909.4807031906975C393.038358404112,1120.3431603749825,396.05445591782455,1318.2074189516604,394.27731513787495,1526.6273017532108C392.50017435792535,1735.047184554761,385.7128858563125,2054.437883625535,384,2160L 1920 2160 L 1920 -1080 Z" fill="url(&quot;#SvgjsLinearGradient1216&quot;)"/><path d="M576,-1080C583.8189333740809,-961.3555114116921,624.5414804260253,-575.0550159845737,622.9136002444853,-368.1330684701522C621.2857200629454,-161.21112095573065,579.3049974474252,-47.377407255821396,566.2327189107605,161.53168508652914C553.1604403740957,370.44077742887964,542.0787126633509,649.5995708070251,544.4799290244968,885.3214855839511C546.8811453856426,1121.043400360877,575.3866719150519,1363.4167546787437,580.6400170776358,1575.8631737480853C585.8933622402196,1788.3095928174268,576.773336179606,2062.6438622913474,576,2160L 1920 2160 L 1920 -1080 Z" fill="url(&quot;#SvgjsLinearGradient1217&quot;)"/><path d="M768,-1080C765.2014329719419,-966.3592375945585,756.3096495915122,-613.556159904595,751.2085978316514,-398.1554255673513C746.1075460717907,-182.75469123010762,738.6827425580296,0.3413433519283444,737.3936894408355,212.4044060234622C736.1046363236413,424.46746869499606,734.5231318475894,662.9105679612874,743.4742791284864,874.2229504618517C752.4254264093834,1085.535332962416,787.0129529809652,1265.9825261038238,791.1005731262175,1480.2787010268485C795.1881932714697,1694.574875949873,771.8500955210362,2046.713116837808,768,2160L 1920 2160 L 1920 -1080 Z" fill="url(&quot;#SvgjsLinearGradient1218&quot;)"/><path d="M960,-1080C957.6867495315732,-999.0727797573655,939.9255817697637,-776.060463683078,946.1204971894394,-594.4366785441931C952.3154126091152,-412.8128934053083,985.7818144153259,-185.3952855383606,997.1694925180549,9.742710833309147C1008.5571706207838,204.88070720497888,1025.2875987212933,390.8470574690924,1014.446565805813,576.3912996858254C1003.6055328903327,761.9355419025584,935.0485884612235,958.6872697918357,932.1232950251733,1123.008164133707C929.1980015891231,1287.3290584755782,992.2486876937073,1389.4846930926713,996.8948051895118,1562.3166657370534C1001.5409226853162,1735.1486383814356,966.149134198252,2060.386110956176,960,2160L 1920 2160 L 1920 -1080 Z" fill="url(&quot;#SvgjsLinearGradient1219&quot;)"/><path d="M1152,-1080C1143.694518349222,-961.9036128875246,1111.51274679912,-579.2659938373645,1102.1671100953326,-371.4216773251472C1092.8214733915454,-163.57736081292987,1083.8206253630228,-34.262666435307466,1095.926179777277,167.0658990733038C1108.031734191531,368.39446458191503,1174.3502603881354,603.0711539131618,1174.8004365808579,836.5497157265203C1175.2506127735803,1070.0282775398787,1102.4273096970883,1347.3622225745414,1098.627236933612,1567.9372699534547C1094.8271641701358,1788.512317332368,1143.1045394889354,2061.322878325576,1152,2160L 1920 2160 L 1920 -1080 Z" fill="url(&quot;#SvgjsLinearGradient1220&quot;)"/><path d="M1344,-1080C1352.5670982577246,-980.0306804432323,1396.252614657505,-690.9717963656997,1395.4025895463474,-480.1840826593939C1394.5525644351897,-269.3963689530881,1352.2231051265242,-42.659608761694415,1338.8998493330544,184.7262822378348C1325.5765935395846,412.112173237364,1322.643464209219,657.4198440021855,1315.4630547855281,884.1312633377813C1308.2826453618372,1110.842682673377,1291.0612352551632,1332.3500088077062,1295.8173927909086,1544.9947982514093C1300.573550326654,1757.6395876951124,1335.9695654651514,2057.4991330419016,1344,2160L 1920 2160 L 1920 -1080 Z" fill="url(&quot;#SvgjsLinearGradient1221&quot;)"/><path d="M1536,-1080C1529.660026788235,-1022.0790722749333,1493.8826610224085,-862.2511402804291,1497.9601607294105,-732.4744336495996C1502.0376604364126,-602.6977270187701,1544.6093737879596,-437.1451604388978,1560.4649982420126,-301.3397602150231C1576.3206226960656,-165.5343599911484,1605.8411664975486,-52.192081355043854,1593.0939074537291,82.35796769364853C1580.3466484099097,216.90801674234092,1499.2035889846363,352.87067645158515,1483.9814439790962,505.96053407713123C1468.759298973556,659.0503917026773,1501.4889189684397,851.9216643178717,1501.7610374204885,1000.8971134469252C1502.0331558725372,1149.8725625759787,1478.2772208384754,1274.9494386617616,1485.6141546913884,1399.8132288514525C1492.9510885443015,1524.6770190411435,1537.3849996531987,1623.3820593936462,1545.7826405379674,1750.0798545850707C1554.180281422736,1876.7776497764953,1537.6304400896613,2091.6799757641784,1536,2160L 1920 2160 L 1920 -1080 Z" fill="url(&quot;#SvgjsLinearGradient1222&quot;)"/><path d="M1728,-1080C1727.6511932183155,-1006.8426037316185,1731.7632067755399,-804.6780192214967,1725.9071593098931,-641.0556223897111C1720.0511118442464,-477.4332255579254,1694.7628071515344,-256.01253163265415,1692.8637152061199,-98.2656190092859C1690.9646232607054,59.481293614082375,1712.064179507036,161.19758032597483,1714.5126076374065,305.42585335049864C1716.961035767777,449.65412637502243,1701.3072220401673,616.008690662719,1707.5542839883433,767.1040191378571C1713.8013459365193,918.1993476129952,1744.0481567796323,1066.2702041236523,1751.994979326463,1211.9978242013271C1759.9418018732936,1357.725444279002,1759.234382490404,1483.4693769707942,1755.2352192693268,1641.4697396039064C1751.2360560482496,1799.4701022370186,1732.5392032115544,2073.5782899339843,1728,2160L 1920 2160 L 1920 -1080 Z" fill="url(&quot;#SvgjsLinearGradient1223&quot;)"/></g></g><defs><linearGradient x1="0.1" y1="0" x2="0" y2="1" id="SvgjsLinearGradient1214"><stop stop-color="#1e1d23" offset="0"/><stop stop-color="#1d1d23" offset="0"/></linearGradient><linearGradient x1="0.1" y1="0" x2="0" y2="1" id="SvgjsLinearGradient1215"><stop stop-color="#33313c" offset="0"/><stop stop-color="#31313c" offset="0.1"/></linearGradient><linearGradient x1="0.1" y1="0" x2="0" y2="1" id="SvgjsLinearGradient1216"><stop stop-color="#484654" offset="0"/><stop stop-color="#464654" offset="0.2"/></linearGradient><linearGradient x1="0.1" y1="0" x2="0" y2="1" id="SvgjsLinearGradient1217"><stop stop-color="#5d5a6d" offset="0"/><stop stop-color="#5a5a6d" offset="0.3"/></linearGradient><linearGradient x1="0.1" y1="0" x2="0" y2="1" id="SvgjsLinearGradient1218"><stop stop-color="#726f85" offset="0"/><stop stop-color="#6f7085" offset="0.4"/></linearGradient><linearGradient x1="0.1" y1="0" x2="0" y2="1" id="SvgjsLinearGradient1219"><stop stop-color="#8a869b" offset="0"/><stop stop-color="#86869b" offset="0.5"/></linearGradient><linearGradient x1="0.1" y1="0" x2="0" y2="1" id="SvgjsLinearGradient1220"><stop stop-color="#a29faf" offset="0"/><stop stop-color="#9f9faf" offset="0.6"/></linearGradient><linearGradient x1="0.1" y1="0" x2="0" y2="1" id="SvgjsLinearGradient1221"><stop stop-color="#b9b7c4" offset="0"/><stop stop-color="#b7b7c4" offset="0.7"/></linearGradient><linearGradient x1="0.1" y1="0" x2="0" y2="1" id="SvgjsLinearGradient1222"><stop stop-color="#d1d0d8" offset="0"/><stop stop-color="#d0d0d8" offset="0.8"/></linearGradient><linearGradient x1="0.1" y1="0" x2="0" y2="1" id="SvgjsLinearGradient1223"><stop stop-color="#e9e9ec" offset="0"/><stop stop-color="#e9e9ec" offset="0.9"/></linearGradient><clipPath id="SvgjsClipPath1224"><rect width="1920" height="1080"/></clipPath></defs></svg>