<svg xmlns="http://www.w3.org/2000/svg" version="1.1" xmlns:xlink="http://www.w3.org/1999/xlink" xmlns:svgjs="http://svgjs.dev/svgjs" style="overflow: hidden; height: 85vh;" viewBox="0 0 1920 1080" class="overflow-hidden rounded-md drop-shadow-lg transition duration-300"><rect width="1920" height="1080" fill="#22194d"/><g clip-path="url(&quot;#SvgjsClipPath2346&quot;)"><g transform="matrix(0.9420248509323402,-0.6596129018037035,0.6596129018037035,0.9420248509323402,-303.23839333714955,633.7750746062156)"><path d="M0,-1080C-0.8948181769893134,-991.312916855472,10.081896623551453,-734.638002485705,-5.368909061935881,-547.8775011328325C-20.819714747423212,-361.1169997799601,-100.70682694588808,-156.828842938838,-92.704834112924,40.56300811723494C-84.70284127995993,237.95485917330788,23.529892155657343,451.8764844749255,42.64304793584856,636.4736052036052C61.75620371603977,821.0707259322849,43.40427810401107,975.846829484629,21.974100568223278,1148.145732489313C0.5439230324354902,1320.444635493997,-82.27566718417427,1501.6246453132617,-85.93801727887815,1670.2670232317096C-89.60036737358203,1838.9094011501575,-14.323002879813025,2078.377837205285,0,2160L 1920 2160 L 1920 -1080 Z" fill="url(&quot;#SvgjsLinearGradient2336&quot;)"/><path d="M192,-1080C183.90423412735132,-1004.6520296938588,150.30742578881478,-780.6841325547692,143.42540476410784,-627.9121781631527C136.5433837394009,-475.14022377153617,138.86671777679055,-320.14931368890393,150.70787385175834,-163.36827365030086C162.54902992672612,-6.587233611697826,199.8731450756948,150.2442016009603,214.4723412139146,312.7740620684656C229.0715373521344,475.30392253597086,229.8366580706739,649.2635606114369,238.30305068107725,811.8108891547308C246.7694432914806,974.3582176980248,265.3127445729363,1147.7639319913676,265.2706968763347,1288.0580333282292C265.22864917973305,1428.3521346650907,250.26254731418985,1508.2518360639385,238.0507645014674,1653.5754971759004C225.83898168874495,1798.8991582878623,199.67512741691124,2075.5959161959836,192,2160L 1920 2160 L 1920 -1080 Z" fill="url(&quot;#SvgjsLinearGradient2337&quot;)"/><path d="M384,-1080C387.48383286250544,-986.2715654669463,395.8279879480329,-736.8949583045106,404.90299717503245,-517.6293928016778C413.978006402032,-298.36382729884497,434.280931554372,20.4605416123336,438.45005536199733,235.593393016997C442.61917916962267,450.7262444216604,434.810960175623,556.1171032698854,429.91774002078455,773.1677156263027C425.0245198659461,990.2183279827199,416.7436911030973,1306.7583530932172,409.09073443296654,1537.8970671555C401.43777776283576,1769.0357812177829,388.1817890721611,2056.31617785925,384,2160L 1920 2160 L 1920 -1080 Z" fill="url(&quot;#SvgjsLinearGradient2338&quot;)"/><path d="M576,-1080C563.4364418932049,-1018.0353104902954,491.02181375075423,-862.8659889599872,500.6186513592297,-708.2118629417723C510.2154889677052,-553.5577369235574,630.5916228710612,-330.95312084371193,633.581025650853,-152.0752438907105C636.5704284306448,26.80263306229091,530.1280709723947,221.8648478729365,518.5550680379804,365.05539877623625C506.9820651035661,508.245949679536,567.7754724926549,573.8396445807944,564.1430080443671,707.068061529088C560.5105435960793,840.2964784773817,496.00168289812024,987.8674455362712,496.76028134825367,1164.4259004659984C497.5188797983871,1340.9843553957257,555.4879789698767,1600.489774518451,568.6945987451678,1766.4187911074512C581.9012185204589,1932.3478076964514,574.7824331241947,2094.403131851242,576,2160L 1920 2160 L 1920 -1080 Z" fill="url(&quot;#SvgjsLinearGradient2339&quot;)"/><path d="M768,-1080C756.7967453945568,-993.788574468277,688.3926475641784,-755.7941947301139,700.7804723673404,-562.7314468096622C713.1682971705023,-369.66869888921053,843.5467158920078,-91.0240824226448,842.3269488189717,78.37648752271002C841.1071817459356,247.77705746806484,689.6831056272279,272.42763046845926,693.4618699291236,453.67197286246665C697.2406342310194,634.916315256474,868.5567386146814,976.6535162892216,864.9995346303459,1165.8425418867544C861.4423306460104,1355.0315674842873,688.2852351281686,1423.1132167621226,672.1186460231108,1588.8061264476635C655.9520569180531,1754.4990361332043,752.0197743371851,2064.8010210746106,768,2160L 1920 2160 L 1920 -1080 Z" fill="url(&quot;#SvgjsLinearGradient2340&quot;)"/><path d="M960,-1080C954.8003329725682,-974.9513717522788,922.8548009433134,-629.9083951130027,928.8019978354093,-449.70823051367256C934.7491947275053,-269.5080659143424,986.4441179004305,-156.31871400436756,995.6831813525758,1.2009875959811893C1004.9222448047212,158.72068919632994,977.5957737771944,319.39493587130227,984.2363785482819,495.4099790884199C990.8769833193694,671.4250223055376,1023.9243962397347,855.2072158378013,1035.526809979101,1057.291246898687C1047.1292237184673,1259.3752779595725,1066.4386626476633,1524.1293732701818,1053.8508609844798,1707.9141654537339C1041.2630593212964,1891.698957637286,975.64181016408,2084.6523609089554,960,2160L 1920 2160 L 1920 -1080 Z" fill="url(&quot;#SvgjsLinearGradient2341&quot;)"/><path d="M1152,-1080C1160.7029302602996,-959.4913634023264,1219.6082664798994,-582.1315375148057,1204.2175815617975,-356.9481804139589C1188.8268966436956,-131.76482331311203,1074.273437339982,53.886331789172374,1059.655890491389,271.10014260508126C1045.0383436427962,488.3139534209902,1090.4574735082274,732.7047384543317,1116.5123004702405,946.3346844814944C1142.5671274322535,1159.9646305086571,1210.0702356751744,1350.6022661816398,1215.9848522634677,1552.8798187680575C1221.899468851761,1755.1573713544751,1162.6641420439114,2058.8133031280095,1152,2160L 1920 2160 L 1920 -1080 Z" fill="url(&quot;#SvgjsLinearGradient2342&quot;)"/><path d="M1344,-1080C1330.8226848069348,-1022.3602466907072,1279.105079215462,-869.6752764682566,1264.936108841609,-734.1614801442432C1250.767138467756,-598.6476838202299,1237.0206292075325,-424.26070148045005,1258.9861777568829,-266.91722205592C1280.9517263062332,-109.57374263138988,1384.63596559726,79.143816484654,1396.7294001377113,209.8993964029375C1408.8228346781625,340.654976321221,1354.9785619295337,397.9884815928568,1331.5467849995894,517.616257453781C1308.115008069645,637.2440333147053,1265.5491592380722,782.7138597042872,1256.138738558045,927.6660515684831C1246.7283178780176,1072.618243432679,1255.2331177603194,1246.3557455312616,1275.084260919425,1387.3294086389565C1294.9354040785308,1528.3030717466513,1363.7596409992505,1644.7295983211447,1375.2455975126795,1773.508030214652C1386.7315540261086,1902.2864621081594,1349.2075995854466,2095.584671702442,1344,2160L 1920 2160 L 1920 -1080 Z" fill="url(&quot;#SvgjsLinearGradient2343&quot;)"/><path d="M1536,-1080C1551.963990619542,-1013.366776633206,1632.6888983096787,-802.0727255812083,1631.783943717252,-680.2006597992355C1630.8789891248252,-558.3285940172627,1543.0583409342694,-494.05578037217435,1530.5702724454402,-348.7676053081635C1518.082203956611,-203.47943024415272,1545.820235327728,33.909145058535756,1556.8555327842762,191.52839058482925C1567.8908302408245,349.1476361111228,1601.020791949332,458.7185953596422,1596.7820571847296,596.9478678495974C1592.5433224201272,735.1771403395526,1541.87670255815,890.364987564499,1531.4231241966613,1020.9040255245603C1520.9695458351725,1151.4430634846217,1542.6504753896925,1260.058017156261,1534.0605870157963,1380.1820956099652C1525.4706986419,1500.3061740636695,1479.560558455917,1611.6788455151127,1479.8837939532843,1741.648496246785C1480.2070294506516,1871.6181469784574,1526.647298992214,2090.274749374464,1536,2160L 1920 2160 L 1920 -1080 Z" fill="url(&quot;#SvgjsLinearGradient2344&quot;)"/><path d="M1728,-1080C1738.6755855236574,-1016.9042736322974,1777.6272709638604,-825.109322410136,1792.053513141944,-701.4256417937843C1806.4797553200276,-577.7419611774326,1828.2513533611657,-475.6453582732708,1814.5574530685012,-337.89791630188995C1800.8635527758368,-200.1504743305091,1722.7508128680583,-28.00514959317762,1709.8901113859574,125.05901003450087C1697.0294099038565,278.12316966217935,1724.7329348769813,442.31616557624494,1737.3932441758961,580.4870414641811C1750.053553474811,718.6579173521172,1794.7982512633566,823.5047244453326,1785.8519671794463,954.0842653621175C1776.905683095536,1084.6638062789025,1682.8897460222083,1244.8573023882623,1683.715539672435,1363.964286964891C1684.5413333226616,1483.0712715415198,1783.4259856928788,1536.0535539827054,1790.8067290808065,1668.7261728218903C1798.187472468734,1801.3987916610752,1738.4677881801344,2078.121028803648,1728,2160L 1920 2160 L 1920 -1080 Z" fill="url(&quot;#SvgjsLinearGradient2345&quot;)"/></g></g><defs><linearGradient x1="0.1" y1="0" x2="0" y2="1" id="SvgjsLinearGradient2336"><stop stop-color="#22194d" offset="0"/><stop stop-color="#19194d" offset="0"/></linearGradient><linearGradient x1="0.1" y1="0" x2="0" y2="1" id="SvgjsLinearGradient2337"><stop stop-color="#31246e" offset="0"/><stop stop-color="#25246e" offset="0.1"/></linearGradient><linearGradient x1="0.1" y1="0" x2="0" y2="1" id="SvgjsLinearGradient2338"><stop stop-color="#402f90" offset="0"/><stop stop-color="#302f90" offset="0.2"/></linearGradient><linearGradient x1="0.1" y1="0" x2="0" y2="1" id="SvgjsLinearGradient2339"><stop stop-color="#4e3ab1" offset="0"/><stop stop-color="#3a3ab1" offset="0.3"/></linearGradient><linearGradient x1="0.1" y1="0" x2="0" y2="1" id="SvgjsLinearGradient2340"><stop stop-color="#6551c6" offset="0"/><stop stop-color="#5151c6" offset="0.4"/></linearGradient><linearGradient x1="0.1" y1="0" x2="0" y2="1" id="SvgjsLinearGradient2341"><stop stop-color="#8372d1" offset="0"/><stop stop-color="#7372d1" offset="0.5"/></linearGradient><linearGradient x1="0.1" y1="0" x2="0" y2="1" id="SvgjsLinearGradient2342"><stop stop-color="#a094dc" offset="0"/><stop stop-color="#9494dc" offset="0.6"/></linearGradient><linearGradient x1="0.1" y1="0" x2="0" y2="1" id="SvgjsLinearGradient2343"><stop stop-color="#beb5e7" offset="0"/><stop stop-color="#b6b5e7" offset="0.7"/></linearGradient><linearGradient x1="0.1" y1="0" x2="0" y2="1" id="SvgjsLinearGradient2344"><stop stop-color="#dbd6f2" offset="0"/><stop stop-color="#d6d6f2" offset="0.8"/></linearGradient><linearGradient x1="0.1" y1="0" x2="0" y2="1" id="SvgjsLinearGradient2345"><stop stop-color="#f9f8fd" offset="0"/><stop stop-color="#f8f8fd" offset="0.9"/></linearGradient><clipPath id="SvgjsClipPath2346"><rect width="1920" height="1080"/></clipPath></defs></svg>